<?xml version="1.0" encoding="utf-8"?>
<!-- Generator: Adobe Illustrator 24.1.1, SVG Export Plug-In . SVG Version: 6.00 Build 0)  -->
<svg version="1.1" id="Capa_1" xmlns="http://www.w3.org/2000/svg" xmlns:xlink="http://www.w3.org/1999/xlink" x="0px" y="0px"
	 viewBox="0 0 222 32" style="enable-background:new 0 0 222 32;" xml:space="preserve">
<style type="text/css">
	.st0{opacity:0.5;}
	.st1{filter:url(#Adobe_OpacityMaskFilter);}
	.st2{fill-rule:evenodd;clip-rule:evenodd;fill:#FFFFFF;}
	.st3{mask:url(#mask-2_1_);fill-rule:evenodd;clip-rule:evenodd;fill:#FEFEFE;}
	.st4{opacity:0.67;}
	.st5{fill-rule:evenodd;clip-rule:evenodd;fill:#FEFEFE;}
	.st6{filter:url(#Adobe_OpacityMaskFilter_1_);}
	.st7{mask:url(#mask-5_1_);fill-rule:evenodd;clip-rule:evenodd;fill:#FEFEFE;}
	.st8{opacity:0.5;fill-rule:evenodd;clip-rule:evenodd;fill:#AFAEAE;enable-background:new    ;}
	.st9{opacity:0.5;fill-rule:evenodd;clip-rule:evenodd;fill:#666666;enable-background:new    ;}
	.st10{opacity:0.5;fill-rule:evenodd;clip-rule:evenodd;fill:#969696;enable-background:new    ;}
	.st11{opacity:0.7;fill-rule:evenodd;clip-rule:evenodd;fill:#FEFEFE;enable-background:new    ;}
	.st12{opacity:0.3;fill:none;stroke:#979797;enable-background:new    ;}
</style>
<desc>Created with Sketch.</desc>
<g id="Last">
	<g id="Desktop-HD-Copy-24" transform="translate(-1052.000000, -4012.000000)">
		<g id="credit_cards" transform="translate(1051.852845, 4011.082439)">
			<g id="visa" transform="translate(122.772814, 11.425673)" class="st0">
				<g id="Clip-2">
				</g>
				<defs>
					<filter id="Adobe_OpacityMaskFilter" filterUnits="userSpaceOnUse" x="27.2" y="0.6" width="31.4" height="10.1">
						<feColorMatrix  type="matrix" values="1 0 0 0 0  0 1 0 0 0  0 0 1 0 0  0 0 0 1 0"/>
					</filter>
				</defs>
				<mask maskUnits="userSpaceOnUse" x="27.2" y="0.6" width="31.4" height="10.1" id="mask-2_1_">
					<g class="st1">
						<polygon id="path-1_1_" class="st2" points="58.6,0.6 27.2,0.6 27.2,10.8 58.6,10.8 						"/>
					</g>
				</mask>
				<path id="Fill-1" class="st3" d="M42.8,0.8l-2.1,9.8h-2.5l2.1-9.8H42.8z M53.5,7.2l1.3-3.7l0.8,3.7H53.5z M56.3,10.6h2.3l-2-9.8
					h-2.2c-0.5,0-0.9,0.3-1.1,0.7l-3.8,9.1h2.7l0.5-1.5H56L56.3,10.6z M49.7,7.4c0-2.6-3.6-2.7-3.6-3.9c0-0.4,0.3-0.7,1.1-0.8
					c0.4,0,1.4-0.1,2.5,0.4l0.4-2.1c-0.6-0.2-1.4-0.4-2.4-0.4c-2.5,0-4.3,1.3-4.3,3.2c0,1.4,1.3,2.2,2.2,2.7C46.7,7,47,7.3,47,7.8
					c0,0.7-0.8,0.9-1.5,1c-1.3,0-2-0.3-2.6-0.6l-0.5,2.1c0.6,0.3,1.7,0.5,2.8,0.5C47.9,10.8,49.7,9.5,49.7,7.4L49.7,7.4z M39.2,0.8
					L35,10.6h-2.7l-2-7.8c-0.1-0.5-0.2-0.7-0.6-0.9c-0.6-0.3-1.6-0.6-2.5-0.8l0.1-0.3h4.3c0.6,0,1,0.4,1.2,1l1.1,5.7l2.6-6.7H39.2z"
					/>
			</g>
			<g id="ae" transform="translate(4.060227, 10.536058)" class="st4">
				<path id="Fill-1_1_" class="st5" d="M54.4,2.6h-1.1l-0.1,0l-0.1,0l-0.1,0l-0.1,0l0,0l0,0l0,0l0,0l0,0l0,0l0,0l0,0.1l0,0.1l0,0.1
					l0,0.1l0,0.1l0,0.2l0,0.2l0,0.1l0,0.1l0,0.1l0,0l0,0l0,0l0,0l0,0l0,0l0.1,0l0.1,0l0.1,0l0.1,0h0.4L54.4,2.6z M40,11.7l0.4-0.4
					L40,10.8V11.7z M63,12L63,12L63,12L63,12z M58.4,12.1l0.2,0L58.4,12.1l-0.1-0.2l-0.1-0.1l-0.1-0.1l-0.1-0.1l-0.1-0.1L58,11.5V12
					L58.4,12.1L58.4,12.1z"/>
				<g id="Group-4" transform="translate(0.000000, 0.385177)">
					<g id="Clip-3">
					</g>
					<defs>
						<filter id="Adobe_OpacityMaskFilter_1_" filterUnits="userSpaceOnUse" x="27.2" y="0.8" width="39.5" height="12.4">
							<feColorMatrix  type="matrix" values="1 0 0 0 0  0 1 0 0 0  0 0 1 0 0  0 0 0 1 0"/>
						</filter>
					</defs>
					<mask maskUnits="userSpaceOnUse" x="27.2" y="0.8" width="39.5" height="12.4" id="mask-5_1_">
						<g class="st6">
							<polygon id="path-4_1_" class="st2" points="66.8,0.8 66.8,13.1 27.2,13.1 27.2,0.8 							"/>
						</g>
					</mask>
					<path id="Fill-2" class="st7" d="M45.3,2.7h1.5c0.3,0,0.4,0,0.5-0.1c0.2-0.1,0.2-0.3,0.2-0.5c0-0.3-0.1-0.4-0.4-0.5
						c-0.1,0-0.2,0-0.4,0h-1.5V2.7z M27.2,5.2l1.9-4.4h1.1l1.9,4.4H31l-0.4-1h-1.7l-0.4,1H27.2z M29.7,1.8L29,3.4h1.3L29.7,1.8z
						 M45.1,10.8h1.4c0.3,0,0.4,0,0.5-0.1c0.2-0.1,0.2-0.3,0.2-0.6c0-0.3-0.1-0.5-0.4-0.6c-0.1,0-0.2,0-0.4,0h-1.4V10.8z M44,9.1
						l-1.5,1.7l1.5,1.8V9.1z M50.2,11.4v1.7h-1V8.7h2.3c0.7,0,1.1,0.1,1.4,0.2C53,9,53.1,9.2,53.2,9.3c0.1,0.2,0.1,0.4,0.1,0.6
						c0,0.4-0.1,0.7-0.3,1c-0.1,0.1-0.3,0.2-0.6,0.3c0.2,0.1,0.3,0.1,0.4,0.2c0.1,0.1,0.2,0.2,0.3,0.3c0.1,0.1,0.1,0.2,0.1,0.3
						c0,0.1,0,0.2,0.1,0.4c0,0.3,0.1,0.5,0.1,0.7h-1.1c0-0.1-0.1-0.3-0.1-0.6c0-0.3-0.1-0.5-0.1-0.6c-0.1-0.1-0.2-0.2-0.3-0.3
						c-0.2-0.1-0.4-0.1-0.8-0.1H50.2z M50.2,10.6h1.4c0.2,0,0.4,0,0.5-0.1c0.1-0.1,0.2-0.3,0.2-0.5c0-0.3-0.1-0.4-0.3-0.5
						c-0.1,0-0.2,0-0.4,0h-1.4V10.6z M63,13.1v-0.8h2c0.3,0,0.5,0,0.6-0.1c0.2-0.1,0.2-0.2,0.2-0.4c0-0.2-0.1-0.4-0.3-0.5
						c-0.1-0.1-0.3-0.1-0.5-0.1h-0.8c-0.5,0-0.8-0.1-1-0.3c-0.1-0.1-0.2-0.3-0.3-0.4c-0.1-0.2-0.1-0.4-0.1-0.6
						c0-0.3,0.1-0.6,0.3-0.9c0.2-0.2,0.4-0.4,0.8-0.4c0.1,0,0.3,0,0.6,0h2.1v0.8h-1.9c-0.3,0-0.5,0-0.6,0c-0.2,0-0.3,0.2-0.3,0.5
						c0,0.2,0.1,0.4,0.2,0.4c0.1,0,0.3,0.1,0.5,0.1h0.7c0.4,0,0.6,0,0.8,0.1c0.3,0.1,0.5,0.3,0.6,0.6c0.1,0.2,0.1,0.4,0.1,0.7
						c0,0.3-0.1,0.5-0.2,0.7c-0.2,0.3-0.4,0.5-0.8,0.5c-0.2,0-0.4,0-0.7,0H63z M39.7,9v0.5H37v0.9h2.4v0.8H37v1h2.8l0.3,0l1.1-1.4
						L39.7,9z M35.9,8.7h3.5l0,0h1.4l1.1,1.5L43,8.7h1h0.4h2.1c0.4,0,0.8,0,1,0.1c0.3,0.1,0.6,0.3,0.8,0.6c0.1,0.2,0.2,0.5,0.2,0.7
						c0,0.2,0,0.4-0.1,0.6c-0.1,0.2-0.2,0.4-0.4,0.5c-0.1,0.1-0.3,0.2-0.5,0.2c-0.2,0-0.4,0.1-0.7,0.1h-1.7v1.5h-0.7H44h-1l-1.2-1.5
						l-1.2,1.5h-0.9h-0.4h-3.4V8.7z M54,8.7h3.8v0.8H55v0.9h2.4v0.8H55v1h2.8v0.9H54V8.7z M58.6,13.1v-0.8h2c0.3,0,0.5,0,0.6-0.1
						c0.2-0.1,0.2-0.2,0.2-0.4c0-0.2-0.1-0.4-0.3-0.5c-0.1-0.1-0.3-0.1-0.5-0.1h-0.8c-0.5,0-0.8-0.1-1-0.3c-0.1-0.1-0.2-0.3-0.3-0.4
						c-0.1-0.2-0.1-0.4-0.1-0.6c0-0.3,0.1-0.6,0.3-0.9c0.2-0.2,0.4-0.4,0.8-0.4c0.1,0,0.3,0,0.6,0h2.1v0.8h-1.9c-0.3,0-0.5,0-0.6,0
						c-0.2,0-0.3,0.2-0.3,0.5c0,0.2,0.1,0.4,0.2,0.4c0.1,0,0.3,0.1,0.5,0.1h0.7c0.4,0,0.6,0,0.8,0.1c0.3,0.1,0.5,0.3,0.6,0.6
						c0.1,0.2,0.1,0.4,0.1,0.7c0,0.3-0.1,0.5-0.2,0.7c-0.2,0.3-0.4,0.5-0.8,0.5c-0.2,0-0.4,0-0.7,0H58.6z M38.6,3.2h-1.1V1.9L37,3.2
						h-1l1-2.5h1.7V3.2z M43.2,3.2h-3.4V0.8h3.8v0.8h-2.7v0.9h2.4V3.2z M48,3.2h-3.8V0.8h2.5c0.7,0,1.2,0.1,1.5,0.2
						c0.2,0.1,0.3,0.2,0.5,0.4c0.1,0.2,0.2,0.4,0.2,0.6c0,0.4-0.1,0.7-0.4,1C48.3,3.1,48.2,3.2,48,3.2L48,3.2z M49.5,3.2h1V0.8h-1
						V3.2z M52.1,3.2h-1.1c0-0.1,0-0.2,0-0.2c0-0.6,0.1-1.1,0.4-1.5c0.2-0.3,0.4-0.5,0.7-0.6c0.3-0.1,0.7-0.2,1.1-0.2h1.5v0.8h-1.4
						c-0.4,0-0.7,0.1-1,0.3c-0.2,0.2-0.2,0.5-0.2,1C52.1,3,52.1,3.1,52.1,3.2L52.1,3.2z M57.9,3.2h-1l-0.6-1.4l-0.6,1.4h-1l1.1-2.5
						h1.1L57.9,3.2z M61.8,3.2h-0.9l-0.7-1.3v1.3h-0.9V0.8h1.2L61.8,3.2z M62.2,3.2h0.9V0.8h-0.9V3.2z M60.9,3.2h0.9L62.2,4V3.2h0.9
						v2H62L60.9,3.2z M59.2,5.2h0.9v-2h-0.9V5.2z M51.1,3.2h1.1c0,0.5,0.2,0.8,0.4,1c0.2,0.1,0.5,0.2,0.8,0.2h0.8l0.5-1.2h1
						l-0.1,0.1h1.3l-0.1-0.1h1l0.8,2h-1.1l-0.4-1h-1.7l-0.4,1h-0.2h-0.9h-0.7c-0.3,0-0.5,0-0.7,0c-0.6-0.1-1-0.4-1.2-0.9
						C51.1,3.9,51.1,3.6,51.1,3.2L51.1,3.2z M49.5,5.2h1v-2h-1V5.2z M44.2,3.2H48c0,0-0.1,0-0.2,0.1c0.2,0.1,0.4,0.1,0.5,0.2
						c0.1,0.1,0.2,0.2,0.3,0.3c0.1,0.1,0.1,0.2,0.1,0.3c0,0.1,0,0.2,0.1,0.4c0,0.3,0.1,0.5,0.1,0.7h-1.2c0-0.1-0.1-0.3-0.1-0.6
						c0-0.3-0.1-0.5-0.2-0.6c-0.1-0.1-0.2-0.2-0.4-0.3c-0.2-0.1-0.5-0.1-0.9-0.1h-0.9v1.7h-1.1V3.2z M39.8,3.2h3.4v0.1h-2.4v1h2.8
						v0.9h-3.9V3.2z M37.5,5.2h1.1v-2h-1.1V5.2z M35.9,3.2h1l-0.8,2h-1.2l-1.3-3.3v3.3h-1.1V0.8h1.7l1.4,3.5L35.9,3.2z"/>
				</g>
			</g>
			<g id="mc" transform="translate(61.646973, 9.072070)">
				<path id="Fill-1_2_" class="st8" d="M52.7,0.9c-1.8,0-3.5,0.6-4.8,1.7c1.8,1.4,3,3.6,3,6.1s-1.2,4.7-3,6.1
					c1.3,1.1,3,1.7,4.8,1.7c4.3,0,7.8-3.5,7.8-7.8S57,0.9,52.7,0.9"/>
				<path id="Fill-4" class="st9" d="M44.9,8.7c0-2.5,1.2-4.7,3-6.1c-1.3-1.1-3-1.7-4.8-1.7c-4.3,0-7.8,3.5-7.8,7.8s3.5,7.8,7.8,7.8
					c1.8,0,3.5-0.6,4.8-1.7C46,13.4,44.9,11.1,44.9,8.7"/>
				<path id="Fill-7" class="st10" d="M44.9,8.7c0,2.5,1.2,4.7,3,6.1c1.8-1.4,3-3.6,3-6.1s-1.2-4.7-3-6.1C46,4,44.9,6.2,44.9,8.7"/>
				<path id="Fill-9_1_" class="st11" d="M32.6,7.4c-0.1-0.1-0.3-0.2-0.5-0.3C32,7.1,31.8,7,31.6,7c-0.1,0-0.2,0-0.3,0
					c-0.1,0-0.2,0.1-0.4,0.1c-0.1,0-0.2,0.1-0.3,0.2c-0.1,0.1-0.2,0.2-0.3,0.3c-0.1-0.2-0.3-0.4-0.5-0.5C29.6,7.1,29.4,7,29.1,7
					c-0.1,0-0.2,0-0.3,0c-0.1,0-0.2,0-0.3,0.1c-0.1,0-0.2,0.1-0.3,0.2c-0.1,0.1-0.2,0.2-0.2,0.3V7.1h-0.8v3.7H28v-2
					c0-0.2,0-0.3,0.1-0.4c0-0.1,0.1-0.2,0.2-0.3c0.1-0.1,0.2-0.1,0.3-0.2c0.1,0,0.2-0.1,0.4-0.1c0.3,0,0.5,0.1,0.6,0.2
					c0.1,0.2,0.2,0.4,0.2,0.7v2h0.8v-2c0-0.2,0-0.3,0.1-0.4c0-0.1,0.1-0.2,0.2-0.3C30.9,8,31,7.9,31.1,7.9c0.1,0,0.2-0.1,0.4-0.1
					c0.3,0,0.5,0.1,0.6,0.2c0.1,0.2,0.2,0.4,0.2,0.7v2H33V8.5c0-0.2,0-0.4-0.1-0.6C32.9,7.7,32.8,7.6,32.6,7.4"/>
				<path id="Fill-12" class="st11" d="M36.7,9.4c-0.1,0.1-0.1,0.3-0.2,0.4c-0.1,0.1-0.2,0.2-0.3,0.2c-0.1,0.1-0.3,0.1-0.5,0.1
					c-0.2,0-0.3,0-0.5-0.1C35.1,10,35,9.9,34.9,9.8c-0.1-0.1-0.2-0.2-0.2-0.4c-0.1-0.1-0.1-0.3-0.1-0.5c0-0.2,0-0.3,0.1-0.5
					c0.1-0.1,0.1-0.3,0.2-0.4C35,8,35.1,7.9,35.2,7.9c0.1-0.1,0.3-0.1,0.5-0.1c0.2,0,0.3,0,0.5,0.1c0.1,0.1,0.3,0.1,0.3,0.2
					c0.1,0.1,0.2,0.2,0.2,0.4c0.1,0.1,0.1,0.3,0.1,0.5C36.8,9.1,36.8,9.3,36.7,9.4L36.7,9.4z M36.7,7.6c-0.1-0.2-0.3-0.3-0.5-0.4
					C36.1,7.1,35.9,7,35.6,7c-0.3,0-0.5,0-0.7,0.1c-0.2,0.1-0.4,0.2-0.6,0.4C34.1,7.8,34,8,33.9,8.2c-0.1,0.2-0.1,0.5-0.1,0.8
					c0,0.3,0,0.5,0.1,0.8c0.1,0.2,0.2,0.4,0.4,0.6c0.2,0.2,0.4,0.3,0.6,0.4c0.2,0.1,0.5,0.1,0.7,0.1c0.3,0,0.5,0,0.7-0.1
					c0.2-0.1,0.3-0.2,0.5-0.4v0.4h0.8V7.1h-0.8V7.6z"/>
				<path id="Fill-14_1_" class="st11" d="M41.2,9c-0.2-0.2-0.5-0.3-0.9-0.3l-0.4-0.1c-0.1,0-0.2,0-0.2,0c-0.1,0-0.1,0-0.2-0.1
					c-0.1,0-0.1-0.1-0.1-0.1c0,0,0-0.1,0-0.2c0-0.1,0.1-0.2,0.2-0.3c0.1-0.1,0.3-0.1,0.5-0.1c0.1,0,0.2,0,0.3,0c0.1,0,0.2,0,0.3,0.1
					c0.1,0,0.2,0.1,0.3,0.1C41,8,41.1,8,41.1,8.1l0.3-0.6c-0.2-0.1-0.4-0.2-0.7-0.3C40.5,7.1,40.3,7,40,7c-0.2,0-0.4,0-0.6,0.1
					c-0.2,0.1-0.3,0.1-0.5,0.2c-0.1,0.1-0.2,0.2-0.3,0.4c-0.1,0.1-0.1,0.3-0.1,0.5c0,0.3,0.1,0.5,0.3,0.7c0.2,0.2,0.5,0.3,0.9,0.4
					l0.4,0c0.2,0,0.4,0.1,0.5,0.1c0.1,0.1,0.2,0.2,0.2,0.3c0,0.1-0.1,0.2-0.2,0.3c-0.1,0.1-0.3,0.1-0.6,0.1c-0.2,0-0.3,0-0.4,0
					s-0.2,0-0.3-0.1C39.1,10,39,10,38.9,10c-0.1,0-0.1-0.1-0.2-0.1l-0.4,0.6c0.1,0.1,0.3,0.2,0.4,0.2c0.1,0.1,0.3,0.1,0.4,0.1
					c0.1,0,0.3,0.1,0.4,0.1c0.1,0,0.2,0,0.3,0c0.3,0,0.5,0,0.7-0.1c0.2-0.1,0.4-0.1,0.5-0.2c0.1-0.1,0.2-0.2,0.3-0.4
					c0.1-0.1,0.1-0.3,0.1-0.5C41.6,9.4,41.4,9.1,41.2,9"/>
				<path id="Fill-16_1_" class="st11" d="M46.5,8.7c0-0.1,0.1-0.3,0.1-0.4c0.1-0.1,0.1-0.2,0.2-0.3c0.1-0.1,0.2-0.1,0.3-0.2
					c0.1,0,0.2-0.1,0.4-0.1c0.3,0,0.5,0.1,0.6,0.2c0.2,0.2,0.3,0.4,0.3,0.7H46.5z M48.7,7.6c-0.2-0.2-0.3-0.3-0.5-0.4
					C47.9,7.1,47.7,7,47.5,7c-0.3,0-0.5,0-0.7,0.1c-0.2,0.1-0.4,0.2-0.6,0.4c-0.2,0.2-0.3,0.4-0.4,0.6c-0.1,0.2-0.1,0.5-0.1,0.8
					c0,0.3,0,0.6,0.1,0.8c0.1,0.2,0.2,0.4,0.4,0.6c0.2,0.2,0.4,0.3,0.6,0.4c0.2,0.1,0.5,0.1,0.8,0.1c0.3,0,0.5,0,0.8-0.1
					c0.3-0.1,0.5-0.2,0.7-0.4l-0.4-0.6c-0.2,0.1-0.3,0.2-0.5,0.3c-0.2,0.1-0.4,0.1-0.6,0.1c-0.1,0-0.3,0-0.4-0.1
					c-0.1,0-0.2-0.1-0.3-0.2c-0.1-0.1-0.2-0.2-0.2-0.3c-0.1-0.1-0.1-0.3-0.1-0.4h2.7c0,0,0-0.1,0-0.1c0-0.1,0-0.1,0-0.2
					c0-0.3,0-0.5-0.1-0.8C49,7.9,48.9,7.7,48.7,7.6L48.7,7.6z"/>
				<path id="Fill-18_1_" class="st11" d="M59.3,9.4c-0.1,0.1-0.1,0.3-0.2,0.4c-0.1,0.1-0.2,0.2-0.3,0.2c-0.1,0.1-0.3,0.1-0.5,0.1
					c-0.2,0-0.3,0-0.5-0.1c-0.1-0.1-0.3-0.1-0.3-0.3c-0.1-0.1-0.2-0.2-0.2-0.4c-0.1-0.1-0.1-0.3-0.1-0.5c0-0.2,0-0.3,0.1-0.5
					c0.1-0.1,0.1-0.3,0.2-0.4c0.1-0.1,0.2-0.2,0.3-0.3c0.1-0.1,0.3-0.1,0.5-0.1c0.2,0,0.3,0,0.5,0.1C58.9,7.9,59,8,59.1,8.1
					c0.1,0.1,0.2,0.2,0.2,0.4c0.1,0.1,0.1,0.3,0.1,0.5C59.4,9.1,59.3,9.3,59.3,9.4L59.3,9.4z M59.3,7.6c-0.1-0.2-0.3-0.3-0.5-0.4
					C58.7,7.1,58.4,7,58.2,7c-0.3,0-0.5,0-0.7,0.1c-0.2,0.1-0.4,0.2-0.6,0.4c-0.2,0.2-0.3,0.4-0.4,0.6c-0.1,0.2-0.1,0.5-0.1,0.8
					c0,0.3,0,0.5,0.1,0.8c0.1,0.2,0.2,0.4,0.4,0.6c0.2,0.2,0.4,0.3,0.6,0.4c0.2,0.1,0.5,0.1,0.7,0.1c0.3,0,0.5,0,0.7-0.1
					c0.2-0.1,0.3-0.2,0.5-0.4v0.4h0.8V7.1h-0.8V7.6z"/>
				<path id="Fill-20" class="st11" d="M44.6,10.1c-0.1,0-0.3,0.1-0.4,0.1c-0.1,0-0.2,0-0.2,0c-0.1,0-0.1-0.1-0.2-0.1
					c-0.1-0.1-0.1-0.1-0.1-0.2c0-0.1,0-0.2,0-0.3V7.9H45V7.1h-1.3V6h-0.8v1.1h-0.7v0.7h0.7v1.6c0,0.5,0.1,0.8,0.3,1.1
					c0.2,0.2,0.6,0.3,1,0.3c0.2,0,0.4,0,0.6-0.1c0.1,0,0.2-0.1,0.3-0.2L44.9,10C44.8,10,44.7,10,44.6,10.1"/>
				<path id="Fill-22" class="st11" d="M51.9,7c-0.2,0-0.4,0-0.6,0.1c-0.2,0.1-0.3,0.3-0.5,0.5V7.1h-0.7v3.7h0.7v-2
					c0-0.2,0-0.3,0.1-0.4c0-0.1,0.1-0.2,0.2-0.3c0.1-0.1,0.2-0.1,0.3-0.2c0.1,0,0.2-0.1,0.4-0.1c0.1,0,0.2,0,0.3,0
					c0.1,0,0.1,0,0.2,0l0.2-0.8c-0.1,0-0.1,0-0.2,0C52.1,7,52,7,51.9,7"/>
				<path id="Fill-24" class="st11" d="M63,7c-0.2,0-0.4,0-0.6,0.1c-0.2,0.1-0.3,0.3-0.5,0.5V7.1h-0.7v3.7h0.7v-2
					c0-0.2,0-0.3,0.1-0.4c0-0.1,0.1-0.2,0.2-0.3c0.1-0.1,0.2-0.1,0.3-0.2c0.1,0,0.2-0.1,0.4-0.1c0.1,0,0.2,0,0.3,0
					c0.1,0,0.1,0,0.2,0l0.2-0.8c-0.1,0-0.1,0-0.2,0C63.2,7,63.1,7,63,7"/>
				<path id="Fill-26" class="st11" d="M66.7,9.4c-0.1,0.1-0.1,0.3-0.2,0.4c-0.1,0.1-0.2,0.2-0.3,0.2c-0.1,0.1-0.3,0.1-0.5,0.1
					c-0.2,0-0.3,0-0.5-0.1c-0.1-0.1-0.3-0.1-0.3-0.3c-0.1-0.1-0.2-0.2-0.2-0.4c-0.1-0.1-0.1-0.3-0.1-0.5c0-0.2,0-0.3,0.1-0.5
					c0.1-0.1,0.1-0.3,0.2-0.4c0.1-0.1,0.2-0.2,0.3-0.3c0.1-0.1,0.3-0.1,0.5-0.1c0.2,0,0.3,0,0.5,0.1c0.1,0.1,0.3,0.1,0.3,0.2
					c0.1,0.1,0.2,0.2,0.2,0.4c0.1,0.1,0.1,0.3,0.1,0.5C66.8,9.1,66.7,9.3,66.7,9.4L66.7,9.4z M66.7,5.6v1.9
					c-0.1-0.2-0.3-0.3-0.5-0.4C66.1,7.1,65.8,7,65.6,7c-0.3,0-0.5,0-0.7,0.1c-0.2,0.1-0.4,0.2-0.6,0.4C64.1,7.8,64,8,63.9,8.2
					c-0.1,0.2-0.1,0.5-0.1,0.8c0,0.3,0,0.5,0.1,0.8c0.1,0.2,0.2,0.4,0.4,0.6c0.2,0.2,0.4,0.3,0.6,0.4c0.2,0.1,0.5,0.1,0.7,0.1
					c0.3,0,0.5,0,0.7-0.1c0.2-0.1,0.3-0.2,0.5-0.4v0.4h0.8V5.6H66.7z"/>
				<path id="Fill-28" class="st11" d="M53.8,8.1C53.9,8,54,7.9,54.1,7.9c0.1-0.1,0.3-0.1,0.5-0.1l0,0c0.2,0,0.3,0,0.5,0.1
					c0.1,0.1,0.3,0.1,0.4,0.2l0.4-0.6c-0.1-0.1-0.3-0.2-0.5-0.3C55.1,7.1,54.9,7,54.6,7c-0.3,0-0.5,0-0.8,0.1
					c-0.2,0.1-0.4,0.2-0.6,0.4C53,7.8,52.9,8,52.8,8.2c-0.1,0.2-0.1,0.5-0.1,0.8c0,0.3,0,0.5,0.1,0.8c0.1,0.2,0.2,0.4,0.4,0.6
					c0.2,0.2,0.4,0.3,0.6,0.4c0.2,0.1,0.5,0.1,0.8,0.1c0.3,0,0.5,0,0.8-0.1c0.2-0.1,0.3-0.2,0.5-0.3l-0.4-0.6
					c-0.1,0.1-0.2,0.2-0.4,0.2c-0.2,0.1-0.3,0.1-0.5,0.1l0,0c-0.2,0-0.3,0-0.5-0.1s-0.3-0.1-0.4-0.2c-0.1-0.1-0.2-0.2-0.2-0.4
					c-0.1-0.1-0.1-0.3-0.1-0.5c0-0.2,0-0.3,0.1-0.5C53.6,8.3,53.7,8.2,53.8,8.1"/>
				<path id="Fill-30" class="st5" d="M68.5,10.7L68.5,10.7L68.5,10.7C68.5,10.7,68.5,10.7,68.5,10.7C68.6,10.7,68.6,10.7,68.5,10.7
					C68.6,10.7,68.6,10.7,68.5,10.7C68.5,10.7,68.5,10.7,68.5,10.7L68.5,10.7z M68.5,10.6C68.6,10.6,68.6,10.6,68.5,10.6
					c0.1,0,0.1,0.1,0.1,0.1c0,0,0,0,0,0c0,0,0,0-0.1,0l0.1,0.1h-0.1l-0.1-0.1h0v0.1h-0.1v-0.2H68.5z M68.5,10.9
					C68.5,10.9,68.6,10.9,68.5,10.9c0.1,0,0.1,0,0.1-0.1c0,0,0,0,0-0.1c0,0,0-0.1,0-0.1c0,0,0-0.1,0-0.1c0,0,0,0,0-0.1
					c0,0,0,0-0.1,0s-0.1,0-0.1,0c0,0-0.1,0-0.1,0c0,0,0,0-0.1,0c0,0,0,0,0,0.1c0,0,0,0.1,0,0.1c0,0,0,0.1,0,0.1c0,0,0,0,0,0.1
					C68.4,10.9,68.4,10.9,68.5,10.9C68.5,10.9,68.5,10.9,68.5,10.9L68.5,10.9z M68.5,10.4c0,0,0.1,0,0.1,0c0,0,0.1,0,0.1,0.1
					c0,0,0,0.1,0.1,0.1c0,0,0,0.1,0,0.1c0,0,0,0.1,0,0.1c0,0,0,0.1-0.1,0.1c0,0-0.1,0-0.1,0.1c0,0-0.1,0-0.1,0c0,0-0.1,0-0.1,0
					c0,0-0.1,0-0.1-0.1c0,0,0-0.1-0.1-0.1c0,0,0-0.1,0-0.1c0,0,0-0.1,0-0.1c0,0,0-0.1,0.1-0.1c0,0,0.1,0,0.1-0.1
					C68.4,10.5,68.5,10.4,68.5,10.4L68.5,10.4z"/>
			</g>
			<path id="frame_1_" class="st12" d="M147.9,2.1h39c2.2,0,4,1.8,4,4v22c0,2.2-1.8,4-4,4h-39c-2.2,0-4-1.8-4-4v-22
				C143.9,3.9,145.7,2.1,147.9,2.1z"/>
			<path id="frame_2_" class="st12" d="M89.9,2.1h39c2.2,0,4,1.8,4,4v22c0,2.2-1.8,4-4,4h-39c-2.2,0-4-1.8-4-4v-22
				C85.9,3.8,87.7,2.1,89.9,2.1z"/>
			<path id="frame_3_" class="st12" d="M31.9,2.1h39c2.2,0,4,1.8,4,4v22c0,2.2-1.8,4-4,4h-39c-2.2,0-4-1.8-4-4v-22
				C27.9,3.8,29.7,2.1,31.9,2.1z"/>
		</g>
	</g>
</g>
</svg>
